<svg class="rich-terminal" viewBox="0 0 1116 782.0" xmlns="http://www.w3.org/2000/svg">
    <!-- Generated with Rich https://www.textualize.io -->
    <style>

    @font-face {
        font-family: "Fira Code";
        src: local("FiraCode-Regular"),
                url("https://cdnjs.cloudflare.com/ajax/libs/firacode/6.2.0/woff2/FiraCode-Regular.woff2") format("woff2"),
                url("https://cdnjs.cloudflare.com/ajax/libs/firacode/6.2.0/woff/FiraCode-Regular.woff") format("woff");
        font-style: normal;
        font-weight: 400;
    }
    @font-face {
        font-family: "Fira Code";
        src: local("FiraCode-Bold"),
                url("https://cdnjs.cloudflare.com/ajax/libs/firacode/6.2.0/woff2/FiraCode-Bold.woff2") format("woff2"),
                url("https://cdnjs.cloudflare.com/ajax/libs/firacode/6.2.0/woff/FiraCode-Bold.woff") format("woff");
        font-style: bold;
        font-weight: 700;
    }

    .terminal-1785933881-matrix {
        font-family: Fira Code, monospace;
        font-size: 20px;
        line-height: 24.4px;
        font-variant-east-asian: full-width;
    }

    .terminal-1785933881-title {
        font-size: 18px;
        font-weight: bold;
        font-family: arial;
    }

    .terminal-1785933881-r1 { fill: #c5c8c6 }
.terminal-1785933881-r2 { fill: #ddedf9;font-weight: bold }
.terminal-1785933881-r3 { fill: #ddedf9 }
.terminal-1785933881-r4 { fill: #a0a0a0 }
.terminal-1785933881-r5 { fill: #004578 }
.terminal-1785933881-r6 { fill: #e0e0e0 }
.terminal-1785933881-r7 { fill: #272727 }
.terminal-1785933881-r8 { fill: #003054 }
.terminal-1785933881-r9 { fill: #ffa62b;font-weight: bold }
    </style>

    <defs>
    <clipPath id="terminal-1785933881-clip-terminal">
      <rect x="0" y="0" width="1097.0" height="731.0" />
    </clipPath>
    <clipPath id="terminal-1785933881-line-0">
    <rect x="0" y="1.5" width="1098" height="24.65"/>
            </clipPath>
<clipPath id="terminal-1785933881-line-1">
    <rect x="0" y="25.9" width="1098" height="24.65"/>
            </clipPath>
<clipPath id="terminal-1785933881-line-2">
    <rect x="0" y="50.3" width="1098" height="24.65"/>
            </clipPath>
<clipPath id="terminal-1785933881-line-3">
    <rect x="0" y="74.7" width="1098" height="24.65"/>
            </clipPath>
<clipPath id="terminal-1785933881-line-4">
    <rect x="0" y="99.1" width="1098" height="24.65"/>
            </clipPath>
<clipPath id="terminal-1785933881-line-5">
    <rect x="0" y="123.5" width="1098" height="24.65"/>
            </clipPath>
<clipPath id="terminal-1785933881-line-6">
    <rect x="0" y="147.9" width="1098" height="24.65"/>
            </clipPath>
<clipPath id="terminal-1785933881-line-7">
    <rect x="0" y="172.3" width="1098" height="24.65"/>
            </clipPath>
<clipPath id="terminal-1785933881-line-8">
    <rect x="0" y="196.7" width="1098" height="24.65"/>
            </clipPath>
<clipPath id="terminal-1785933881-line-9">
    <rect x="0" y="221.1" width="1098" height="24.65"/>
            </clipPath>
<clipPath id="terminal-1785933881-line-10">
    <rect x="0" y="245.5" width="1098" height="24.65"/>
            </clipPath>
<clipPath id="terminal-1785933881-line-11">
    <rect x="0" y="269.9" width="1098" height="24.65"/>
            </clipPath>
<clipPath id="terminal-1785933881-line-12">
    <rect x="0" y="294.3" width="1098" height="24.65"/>
            </clipPath>
<clipPath id="terminal-1785933881-line-13">
    <rect x="0" y="318.7" width="1098" height="24.65"/>
            </clipPath>
<clipPath id="terminal-1785933881-line-14">
    <rect x="0" y="343.1" width="1098" height="24.65"/>
            </clipPath>
<clipPath id="terminal-1785933881-line-15">
    <rect x="0" y="367.5" width="1098" height="24.65"/>
            </clipPath>
<clipPath id="terminal-1785933881-line-16">
    <rect x="0" y="391.9" width="1098" height="24.65"/>
            </clipPath>
<clipPath id="terminal-1785933881-line-17">
    <rect x="0" y="416.3" width="1098" height="24.65"/>
            </clipPath>
<clipPath id="terminal-1785933881-line-18">
    <rect x="0" y="440.7" width="1098" height="24.65"/>
            </clipPath>
<clipPath id="terminal-1785933881-line-19">
    <rect x="0" y="465.1" width="1098" height="24.65"/>
            </clipPath>
<clipPath id="terminal-1785933881-line-20">
    <rect x="0" y="489.5" width="1098" height="24.65"/>
            </clipPath>
<clipPath id="terminal-1785933881-line-21">
    <rect x="0" y="513.9" width="1098" height="24.65"/>
            </clipPath>
<clipPath id="terminal-1785933881-line-22">
    <rect x="0" y="538.3" width="1098" height="24.65"/>
            </clipPath>
<clipPath id="terminal-1785933881-line-23">
    <rect x="0" y="562.7" width="1098" height="24.65"/>
            </clipPath>
<clipPath id="terminal-1785933881-line-24">
    <rect x="0" y="587.1" width="1098" height="24.65"/>
            </clipPath>
<clipPath id="terminal-1785933881-line-25">
    <rect x="0" y="611.5" width="1098" height="24.65"/>
            </clipPath>
<clipPath id="terminal-1785933881-line-26">
    <rect x="0" y="635.9" width="1098" height="24.65"/>
            </clipPath>
<clipPath id="terminal-1785933881-line-27">
    <rect x="0" y="660.3" width="1098" height="24.65"/>
            </clipPath>
<clipPath id="terminal-1785933881-line-28">
    <rect x="0" y="684.7" width="1098" height="24.65"/>
            </clipPath>
    </defs>

    <rect fill="#292929" stroke="rgba(255,255,255,0.35)" stroke-width="1" x="1" y="1" width="1114" height="780" rx="8"/><text class="terminal-1785933881-title" fill="#c5c8c6" text-anchor="middle" x="557" y="27">log&#160;90x30</text>
            <g transform="translate(26,22)">
            <circle cx="0" cy="0" r="7" fill="#ff5f57"/>
            <circle cx="22" cy="0" r="7" fill="#febc2e"/>
            <circle cx="44" cy="0" r="7" fill="#28c840"/>
            </g>
        
    <g transform="translate(9, 41)" clip-path="url(#terminal-1785933881-clip-terminal)">
    <rect fill="#0178d4" x="0" y="1.5" width="12.2" height="24.65" shape-rendering="crispEdges"/><rect fill="#0178d4" x="12.2" y="1.5" width="268.4" height="24.65" shape-rendering="crispEdges"/><rect fill="#0178d4" x="280.6" y="1.5" width="427" height="24.65" shape-rendering="crispEdges"/><rect fill="#0178d4" x="707.6" y="1.5" width="378.2" height="24.65" shape-rendering="crispEdges"/><rect fill="#0178d4" x="1085.8" y="1.5" width="12.2" height="24.65" shape-rendering="crispEdges"/><rect fill="#121212" x="0" y="25.9" width="12.2" height="24.65" shape-rendering="crispEdges"/><rect fill="#121212" x="12.2" y="25.9" width="707.6" height="24.65" shape-rendering="crispEdges"/><rect fill="#121212" x="719.8" y="25.9" width="170.8" height="24.65" shape-rendering="crispEdges"/><rect fill="#121212" x="890.6" y="25.9" width="195.2" height="24.65" shape-rendering="crispEdges"/><rect fill="#121212" x="1085.8" y="25.9" width="12.2" height="24.65" shape-rendering="crispEdges"/><rect fill="#121212" x="0" y="50.3" width="12.2" height="24.65" shape-rendering="crispEdges"/><rect fill="#272727" x="12.2" y="50.3" width="12.2" height="24.65" shape-rendering="crispEdges"/><rect fill="#272727" x="24.4" y="50.3" width="1049.2" height="24.65" shape-rendering="crispEdges"/><rect fill="#272727" x="1073.6" y="50.3" width="12.2" height="24.65" shape-rendering="crispEdges"/><rect fill="#121212" x="1085.8" y="50.3" width="12.2" height="24.65" shape-rendering="crispEdges"/><rect fill="#121212" x="0" y="74.7" width="12.2" height="24.65" shape-rendering="crispEdges"/><rect fill="#272727" x="12.2" y="74.7" width="12.2" height="24.65" shape-rendering="crispEdges"/><rect fill="#272727" x="24.4" y="74.7" width="841.8" height="24.65" shape-rendering="crispEdges"/><rect fill="#272727" x="866.2" y="74.7" width="195.2" height="24.65" shape-rendering="crispEdges"/><rect fill="#000000" x="1061.4" y="74.7" width="12.2" height="24.65" shape-rendering="crispEdges"/><rect fill="#272727" x="1073.6" y="74.7" width="12.2" height="24.65" shape-rendering="crispEdges"/><rect fill="#121212" x="1085.8" y="74.7" width="12.2" height="24.65" shape-rendering="crispEdges"/><rect fill="#121212" x="0" y="99.1" width="12.2" height="24.65" shape-rendering="crispEdges"/><rect fill="#272727" x="12.2" y="99.1" width="12.2" height="24.65" shape-rendering="crispEdges"/><rect fill="#272727" x="24.4" y="99.1" width="1037" height="24.65" shape-rendering="crispEdges"/><rect fill="#000000" x="1061.4" y="99.1" width="12.2" height="24.65" shape-rendering="crispEdges"/><rect fill="#272727" x="1073.6" y="99.1" width="12.2" height="24.65" shape-rendering="crispEdges"/><rect fill="#121212" x="1085.8" y="99.1" width="12.2" height="24.65" shape-rendering="crispEdges"/><rect fill="#121212" x="0" y="123.5" width="12.2" height="24.65" shape-rendering="crispEdges"/><rect fill="#272727" x="12.2" y="123.5" width="12.2" height="24.65" shape-rendering="crispEdges"/><rect fill="#272727" x="24.4" y="123.5" width="1037" height="24.65" shape-rendering="crispEdges"/><rect fill="#000000" x="1061.4" y="123.5" width="12.2" height="24.65" shape-rendering="crispEdges"/><rect fill="#272727" x="1073.6" y="123.5" width="12.2" height="24.65" shape-rendering="crispEdges"/><rect fill="#121212" x="1085.8" y="123.5" width="12.2" height="24.65" shape-rendering="crispEdges"/><rect fill="#121212" x="0" y="147.9" width="12.2" height="24.65" shape-rendering="crispEdges"/><rect fill="#272727" x="12.2" y="147.9" width="12.2" height="24.65" shape-rendering="crispEdges"/><rect fill="#272727" x="24.4" y="147.9" width="1037" height="24.65" shape-rendering="crispEdges"/><rect fill="#000000" x="1061.4" y="147.9" width="12.2" height="24.65" shape-rendering="crispEdges"/><rect fill="#272727" x="1073.6" y="147.9" width="12.2" height="24.65" shape-rendering="crispEdges"/><rect fill="#121212" x="1085.8" y="147.9" width="12.2" height="24.65" shape-rendering="crispEdges"/><rect fill="#121212" x="0" y="172.3" width="12.2" height="24.65" shape-rendering="crispEdges"/><rect fill="#272727" x="12.2" y="172.3" width="12.2" height="24.65" shape-rendering="crispEdges"/><rect fill="#272727" x="24.4" y="172.3" width="719.8" height="24.65" shape-rendering="crispEdges"/><rect fill="#272727" x="744.2" y="172.3" width="317.2" height="24.65" shape-rendering="crispEdges"/><rect fill="#000000" x="1061.4" y="172.3" width="12.2" height="24.65" shape-rendering="crispEdges"/><rect fill="#272727" x="1073.6" y="172.3" width="12.2" height="24.65" shape-rendering="crispEdges"/><rect fill="#121212" x="1085.8" y="172.3" width="12.2" height="24.65" shape-rendering="crispEdges"/><rect fill="#121212" x="0" y="196.7" width="12.2" height="24.65" shape-rendering="crispEdges"/><rect fill="#272727" x="12.2" y="196.7" width="12.2" height="24.65" shape-rendering="crispEdges"/><rect fill="#272727" x="24.4" y="196.7" width="1037" height="24.65" shape-rendering="crispEdges"/><rect fill="#000000" x="1061.4" y="196.7" width="12.2" height="24.65" shape-rendering="crispEdges"/><rect fill="#272727" x="1073.6" y="196.7" width="12.2" height="24.65" shape-rendering="crispEdges"/><rect fill="#121212" x="1085.8" y="196.7" width="12.2" height="24.65" shape-rendering="crispEdges"/><rect fill="#121212" x="0" y="221.1" width="12.2" height="24.65" shape-rendering="crispEdges"/><rect fill="#272727" x="12.2" y="221.1" width="12.2" height="24.65" shape-rendering="crispEdges"/><rect fill="#272727" x="24.4" y="221.1" width="878.4" height="24.65" shape-rendering="crispEdges"/><rect fill="#272727" x="902.8" y="221.1" width="158.6" height="24.65" shape-rendering="crispEdges"/><rect fill="#000000" x="1061.4" y="221.1" width="12.2" height="24.65" shape-rendering="crispEdges"/><rect fill="#272727" x="1073.6" y="221.1" width="12.2" height="24.65" shape-rendering="crispEdges"/><rect fill="#121212" x="1085.8" y="221.1" width="12.2" height="24.65" shape-rendering="crispEdges"/><rect fill="#121212" x="0" y="245.5" width="12.2" height="24.65" shape-rendering="crispEdges"/><rect fill="#272727" x="12.2" y="245.5" width="12.2" height="24.65" shape-rendering="crispEdges"/><rect fill="#272727" x="24.4" y="245.5" width="780.8" height="24.65" shape-rendering="crispEdges"/><rect fill="#272727" x="805.2" y="245.5" width="256.2" height="24.65" shape-rendering="crispEdges"/><rect fill="#000000" x="1061.4" y="245.5" width="12.2" height="24.65" shape-rendering="crispEdges"/><rect fill="#272727" x="1073.6" y="245.5" width="12.2" height="24.65" shape-rendering="crispEdges"/><rect fill="#121212" x="1085.8" y="245.5" width="12.2" height="24.65" shape-rendering="crispEdges"/><rect fill="#121212" x="0" y="269.9" width="12.2" height="24.65" shape-rendering="crispEdges"/><rect fill="#272727" x="12.2" y="269.9" width="12.2" height="24.65" shape-rendering="crispEdges"/><rect fill="#272727" x="24.4" y="269.9" width="939.4" height="24.65" shape-rendering="crispEdges"/><rect fill="#272727" x="963.8" y="269.9" width="97.6" height="24.65" shape-rendering="crispEdges"/><rect fill="#000000" x="1061.4" y="269.9" width="12.2" height="24.65" shape-rendering="crispEdges"/><rect fill="#272727" x="1073.6" y="269.9" width="12.2" height="24.65" shape-rendering="crispEdges"/><rect fill="#121212" x="1085.8" y="269.9" width="12.2" height="24.65" shape-rendering="crispEdges"/><rect fill="#121212" x="0" y="294.3" width="12.2" height="24.65" shape-rendering="crispEdges"/><rect fill="#272727" x="12.2" y="294.3" width="12.2" height="24.65" shape-rendering="crispEdges"/><rect fill="#272727" x="24.4" y="294.3" width="719.8" height="24.65" shape-rendering="crispEdges"/><rect fill="#272727" x="744.2" y="294.3" width="317.2" height="24.65" shape-rendering="crispEdges"/><rect fill="#000000" x="1061.4" y="294.3" width="12.2" height="24.65" shape-rendering="crispEdges"/><rect fill="#272727" x="1073.6" y="294.3" width="12.2" height="24.65" shape-rendering="crispEdges"/><rect fill="#121212" x="1085.8" y="294.3" width="12.2" height="24.65" shape-rendering="crispEdges"/><rect fill="#121212" x="0" y="318.7" width="12.2" height="24.65" shape-rendering="crispEdges"/><rect fill="#272727" x="12.2" y="318.7" width="12.2" height="24.65" shape-rendering="crispEdges"/><rect fill="#272727" x="24.4" y="318.7" width="878.4" height="24.65" shape-rendering="crispEdges"/><rect fill="#272727" x="902.8" y="318.7" width="158.6" height="24.65" shape-rendering="crispEdges"/><rect fill="#000000" x="1061.4" y="318.7" width="12.2" height="24.65" shape-rendering="crispEdges"/><rect fill="#272727" x="1073.6" y="318.7" width="12.2" height="24.65" shape-rendering="crispEdges"/><rect fill="#121212" x="1085.8" y="318.7" width="12.2" height="24.65" shape-rendering="crispEdges"/><rect fill="#121212" x="0" y="343.1" width="12.2" height="24.65" shape-rendering="crispEdges"/><rect fill="#272727" x="12.2" y="343.1" width="12.2" height="24.65" shape-rendering="crispEdges"/><rect fill="#272727" x="24.4" y="343.1" width="1037" height="24.65" shape-rendering="crispEdges"/><rect fill="#000000" x="1061.4" y="343.1" width="12.2" height="24.65" shape-rendering="crispEdges"/><rect fill="#272727" x="1073.6" y="343.1" width="12.2" height="24.65" shape-rendering="crispEdges"/><rect fill="#121212" x="1085.8" y="343.1" width="12.2" height="24.65" shape-rendering="crispEdges"/><rect fill="#121212" x="0" y="367.5" width="12.2" height="24.65" shape-rendering="crispEdges"/><rect fill="#272727" x="12.2" y="367.5" width="12.2" height="24.65" shape-rendering="crispEdges"/><rect fill="#272727" x="24.4" y="367.5" width="1037" height="24.65" shape-rendering="crispEdges"/><rect fill="#000000" x="1061.4" y="367.5" width="12.2" height="24.65" shape-rendering="crispEdges"/><rect fill="#272727" x="1073.6" y="367.5" width="12.2" height="24.65" shape-rendering="crispEdges"/><rect fill="#121212" x="1085.8" y="367.5" width="12.2" height="24.65" shape-rendering="crispEdges"/><rect fill="#121212" x="0" y="391.9" width="12.2" height="24.65" shape-rendering="crispEdges"/><rect fill="#272727" x="12.2" y="391.9" width="12.2" height="24.65" shape-rendering="crispEdges"/><rect fill="#272727" x="24.4" y="391.9" width="1037" height="24.65" shape-rendering="crispEdges"/><rect fill="#000000" x="1061.4" y="391.9" width="12.2" height="24.65" shape-rendering="crispEdges"/><rect fill="#272727" x="1073.6" y="391.9" width="12.2" height="24.65" shape-rendering="crispEdges"/><rect fill="#121212" x="1085.8" y="391.9" width="12.2" height="24.65" shape-rendering="crispEdges"/><rect fill="#121212" x="0" y="416.3" width="12.2" height="24.65" shape-rendering="crispEdges"/><rect fill="#272727" x="12.2" y="416.3" width="12.2" height="24.65" shape-rendering="crispEdges"/><rect fill="#272727" x="24.4" y="416.3" width="1037" height="24.65" shape-rendering="crispEdges"/><rect fill="#000000" x="1061.4" y="416.3" width="12.2" height="24.65" shape-rendering="crispEdges"/><rect fill="#272727" x="1073.6" y="416.3" width="12.2" height="24.65" shape-rendering="crispEdges"/><rect fill="#121212" x="1085.8" y="416.3" width="12.2" height="24.65" shape-rendering="crispEdges"/><rect fill="#121212" x="0" y="440.7" width="12.2" height="24.65" shape-rendering="crispEdges"/><rect fill="#272727" x="12.2" y="440.7" width="12.2" height="24.65" shape-rendering="crispEdges"/><rect fill="#272727" x="24.4" y="440.7" width="1037" height="24.65" shape-rendering="crispEdges"/><rect fill="#000000" x="1061.4" y="440.7" width="12.2" height="24.65" shape-rendering="crispEdges"/><rect fill="#272727" x="1073.6" y="440.7" width="12.2" height="24.65" shape-rendering="crispEdges"/><rect fill="#121212" x="1085.8" y="440.7" width="12.2" height="24.65" shape-rendering="crispEdges"/><rect fill="#121212" x="0" y="465.1" width="12.2" height="24.65" shape-rendering="crispEdges"/><rect fill="#272727" x="12.2" y="465.1" width="12.2" height="24.65" shape-rendering="crispEdges"/><rect fill="#272727" x="24.4" y="465.1" width="1037" height="24.65" shape-rendering="crispEdges"/><rect fill="#000000" x="1061.4" y="465.1" width="12.2" height="24.65" shape-rendering="crispEdges"/><rect fill="#272727" x="1073.6" y="465.1" width="12.2" height="24.65" shape-rendering="crispEdges"/><rect fill="#121212" x="1085.8" y="465.1" width="12.2" height="24.65" shape-rendering="crispEdges"/><rect fill="#121212" x="0" y="489.5" width="12.2" height="24.65" shape-rendering="crispEdges"/><rect fill="#272727" x="12.2" y="489.5" width="12.2" height="24.65" shape-rendering="crispEdges"/><rect fill="#272727" x="24.4" y="489.5" width="1037" height="24.65" shape-rendering="crispEdges"/><rect fill="#000000" x="1061.4" y="489.5" width="12.2" height="24.65" shape-rendering="crispEdges"/><rect fill="#272727" x="1073.6" y="489.5" width="12.2" height="24.65" shape-rendering="crispEdges"/><rect fill="#121212" x="1085.8" y="489.5" width="12.2" height="24.65" shape-rendering="crispEdges"/><rect fill="#121212" x="0" y="513.9" width="12.2" height="24.65" shape-rendering="crispEdges"/><rect fill="#272727" x="12.2" y="513.9" width="12.2" height="24.65" shape-rendering="crispEdges"/><rect fill="#272727" x="24.4" y="513.9" width="1037" height="24.65" shape-rendering="crispEdges"/><rect fill="#000000" x="1061.4" y="513.9" width="12.2" height="24.65" shape-rendering="crispEdges"/><rect fill="#272727" x="1073.6" y="513.9" width="12.2" height="24.65" shape-rendering="crispEdges"/><rect fill="#121212" x="1085.8" y="513.9" width="12.2" height="24.65" shape-rendering="crispEdges"/><rect fill="#121212" x="0" y="538.3" width="12.2" height="24.65" shape-rendering="crispEdges"/><rect fill="#272727" x="12.2" y="538.3" width="12.2" height="24.65" shape-rendering="crispEdges"/><rect fill="#272727" x="24.4" y="538.3" width="1037" height="24.65" shape-rendering="crispEdges"/><rect fill="#000000" x="1061.4" y="538.3" width="12.2" height="24.65" shape-rendering="crispEdges"/><rect fill="#272727" x="1073.6" y="538.3" width="12.2" height="24.65" shape-rendering="crispEdges"/><rect fill="#121212" x="1085.8" y="538.3" width="12.2" height="24.65" shape-rendering="crispEdges"/><rect fill="#121212" x="0" y="562.7" width="12.2" height="24.65" shape-rendering="crispEdges"/><rect fill="#272727" x="12.2" y="562.7" width="12.2" height="24.65" shape-rendering="crispEdges"/><rect fill="#272727" x="24.4" y="562.7" width="1037" height="24.65" shape-rendering="crispEdges"/><rect fill="#000000" x="1061.4" y="562.7" width="12.2" height="24.65" shape-rendering="crispEdges"/><rect fill="#272727" x="1073.6" y="562.7" width="12.2" height="24.65" shape-rendering="crispEdges"/><rect fill="#121212" x="1085.8" y="562.7" width="12.2" height="24.65" shape-rendering="crispEdges"/><rect fill="#121212" x="0" y="587.1" width="12.2" height="24.65" shape-rendering="crispEdges"/><rect fill="#272727" x="12.2" y="587.1" width="12.2" height="24.65" shape-rendering="crispEdges"/><rect fill="#272727" x="24.4" y="587.1" width="1037" height="24.65" shape-rendering="crispEdges"/><rect fill="#000000" x="1061.4" y="587.1" width="12.2" height="24.65" shape-rendering="crispEdges"/><rect fill="#272727" x="1073.6" y="587.1" width="12.2" height="24.65" shape-rendering="crispEdges"/><rect fill="#121212" x="1085.8" y="587.1" width="12.2" height="24.65" shape-rendering="crispEdges"/><rect fill="#121212" x="0" y="611.5" width="12.2" height="24.65" shape-rendering="crispEdges"/><rect fill="#272727" x="12.2" y="611.5" width="12.2" height="24.65" shape-rendering="crispEdges"/><rect fill="#272727" x="24.4" y="611.5" width="1037" height="24.65" shape-rendering="crispEdges"/><rect fill="#000000" x="1061.4" y="611.5" width="12.2" height="24.65" shape-rendering="crispEdges"/><rect fill="#272727" x="1073.6" y="611.5" width="12.2" height="24.65" shape-rendering="crispEdges"/><rect fill="#121212" x="1085.8" y="611.5" width="12.2" height="24.65" shape-rendering="crispEdges"/><rect fill="#121212" x="0" y="635.9" width="12.2" height="24.65" shape-rendering="crispEdges"/><rect fill="#272727" x="12.2" y="635.9" width="12.2" height="24.65" shape-rendering="crispEdges"/><rect fill="#272727" x="24.4" y="635.9" width="1037" height="24.65" shape-rendering="crispEdges"/><rect fill="#000000" x="1061.4" y="635.9" width="12.2" height="24.65" shape-rendering="crispEdges"/><rect fill="#272727" x="1073.6" y="635.9" width="12.2" height="24.65" shape-rendering="crispEdges"/><rect fill="#121212" x="1085.8" y="635.9" width="12.2" height="24.65" shape-rendering="crispEdges"/><rect fill="#121212" x="0" y="660.3" width="12.2" height="24.65" shape-rendering="crispEdges"/><rect fill="#272727" x="12.2" y="660.3" width="12.2" height="24.65" shape-rendering="crispEdges"/><rect fill="#003054" x="24.4" y="660.3" width="12.2" height="24.65" shape-rendering="crispEdges"/><rect fill="#003054" x="36.6" y="660.3" width="12.2" height="24.65" shape-rendering="crispEdges"/><rect fill="#003054" x="48.8" y="660.3" width="12.2" height="24.65" shape-rendering="crispEdges"/><rect fill="#003054" x="61" y="660.3" width="12.2" height="24.65" shape-rendering="crispEdges"/><rect fill="#003054" x="73.2" y="660.3" width="12.2" height="24.65" shape-rendering="crispEdges"/><rect fill="#003054" x="85.4" y="660.3" width="12.2" height="24.65" shape-rendering="crispEdges"/><rect fill="#003054" x="97.6" y="660.3" width="12.2" height="24.65" shape-rendering="crispEdges"/><rect fill="#003054" x="109.8" y="660.3" width="12.2" height="24.65" shape-rendering="crispEdges"/><rect fill="#003054" x="122" y="660.3" width="12.2" height="24.65" shape-rendering="crispEdges"/><rect fill="#003054" x="134.2" y="660.3" width="12.2" height="24.65" shape-rendering="crispEdges"/><rect fill="#003054" x="146.4" y="660.3" width="12.2" height="24.65" shape-rendering="crispEdges"/><rect fill="#003054" x="158.6" y="660.3" width="12.2" height="24.65" shape-rendering="crispEdges"/><rect fill="#003054" x="170.8" y="660.3" width="12.2" height="24.65" shape-rendering="crispEdges"/><rect fill="#003054" x="183" y="660.3" width="12.2" height="24.65" shape-rendering="crispEdges"/><rect fill="#003054" x="195.2" y="660.3" width="12.2" height="24.65" shape-rendering="crispEdges"/><rect fill="#003054" x="207.4" y="660.3" width="12.2" height="24.65" shape-rendering="crispEdges"/><rect fill="#003054" x="219.6" y="660.3" width="12.2" height="24.65" shape-rendering="crispEdges"/><rect fill="#003054" x="231.8" y="660.3" width="12.2" height="24.65" shape-rendering="crispEdges"/><rect fill="#003054" x="244" y="660.3" width="12.2" height="24.65" shape-rendering="crispEdges"/><rect fill="#003054" x="256.2" y="660.3" width="12.2" height="24.65" shape-rendering="crispEdges"/><rect fill="#003054" x="268.4" y="660.3" width="12.2" height="24.65" shape-rendering="crispEdges"/><rect fill="#003054" x="280.6" y="660.3" width="12.2" height="24.65" shape-rendering="crispEdges"/><rect fill="#003054" x="292.8" y="660.3" width="12.2" height="24.65" shape-rendering="crispEdges"/><rect fill="#003054" x="305" y="660.3" width="12.2" height="24.65" shape-rendering="crispEdges"/><rect fill="#003054" x="317.2" y="660.3" width="12.2" height="24.65" shape-rendering="crispEdges"/><rect fill="#003054" x="329.4" y="660.3" width="12.2" height="24.65" shape-rendering="crispEdges"/><rect fill="#003054" x="341.6" y="660.3" width="12.2" height="24.65" shape-rendering="crispEdges"/><rect fill="#003054" x="353.8" y="660.3" width="12.2" height="24.65" shape-rendering="crispEdges"/><rect fill="#003054" x="366" y="660.3" width="12.2" height="24.65" shape-rendering="crispEdges"/><rect fill="#003054" x="378.2" y="660.3" width="12.2" height="24.65" shape-rendering="crispEdges"/><rect fill="#003054" x="390.4" y="660.3" width="12.2" height="24.65" shape-rendering="crispEdges"/><rect fill="#003054" x="402.6" y="660.3" width="12.2" height="24.65" shape-rendering="crispEdges"/><rect fill="#003054" x="414.8" y="660.3" width="12.2" height="24.65" shape-rendering="crispEdges"/><rect fill="#003054" x="427" y="660.3" width="12.2" height="24.65" shape-rendering="crispEdges"/><rect fill="#003054" x="439.2" y="660.3" width="12.2" height="24.65" shape-rendering="crispEdges"/><rect fill="#003054" x="451.4" y="660.3" width="12.2" height="24.65" shape-rendering="crispEdges"/><rect fill="#003054" x="463.6" y="660.3" width="12.2" height="24.65" shape-rendering="crispEdges"/><rect fill="#003054" x="475.8" y="660.3" width="12.2" height="24.65" shape-rendering="crispEdges"/><rect fill="#003054" x="488" y="660.3" width="12.2" height="24.65" shape-rendering="crispEdges"/><rect fill="#003054" x="500.2" y="660.3" width="12.2" height="24.65" shape-rendering="crispEdges"/><rect fill="#003054" x="512.4" y="660.3" width="12.2" height="24.65" shape-rendering="crispEdges"/><rect fill="#003054" x="524.6" y="660.3" width="12.2" height="24.65" shape-rendering="crispEdges"/><rect fill="#003054" x="536.8" y="660.3" width="12.2" height="24.65" shape-rendering="crispEdges"/><rect fill="#003054" x="549" y="660.3" width="12.2" height="24.65" shape-rendering="crispEdges"/><rect fill="#003054" x="561.2" y="660.3" width="12.2" height="24.65" shape-rendering="crispEdges"/><rect fill="#003054" x="573.4" y="660.3" width="12.2" height="24.65" shape-rendering="crispEdges"/><rect fill="#003054" x="585.6" y="660.3" width="12.2" height="24.65" shape-rendering="crispEdges"/><rect fill="#003054" x="597.8" y="660.3" width="12.2" height="24.65" shape-rendering="crispEdges"/><rect fill="#003054" x="610" y="660.3" width="12.2" height="24.65" shape-rendering="crispEdges"/><rect fill="#003054" x="622.2" y="660.3" width="12.2" height="24.65" shape-rendering="crispEdges"/><rect fill="#003054" x="634.4" y="660.3" width="12.2" height="24.65" shape-rendering="crispEdges"/><rect fill="#003054" x="646.6" y="660.3" width="12.2" height="24.65" shape-rendering="crispEdges"/><rect fill="#003054" x="658.8" y="660.3" width="12.2" height="24.65" shape-rendering="crispEdges"/><rect fill="#003054" x="671" y="660.3" width="12.2" height="24.65" shape-rendering="crispEdges"/><rect fill="#003054" x="683.2" y="660.3" width="12.2" height="24.65" shape-rendering="crispEdges"/><rect fill="#003054" x="695.4" y="660.3" width="12.2" height="24.65" shape-rendering="crispEdges"/><rect fill="#003054" x="707.6" y="660.3" width="12.2" height="24.65" shape-rendering="crispEdges"/><rect fill="#003054" x="719.8" y="660.3" width="12.2" height="24.65" shape-rendering="crispEdges"/><rect fill="#003054" x="732" y="660.3" width="12.2" height="24.65" shape-rendering="crispEdges"/><rect fill="#003054" x="744.2" y="660.3" width="12.2" height="24.65" shape-rendering="crispEdges"/><rect fill="#003054" x="756.4" y="660.3" width="12.2" height="24.65" shape-rendering="crispEdges"/><rect fill="#003054" x="768.6" y="660.3" width="12.2" height="24.65" shape-rendering="crispEdges"/><rect fill="#003054" x="780.8" y="660.3" width="12.2" height="24.65" shape-rendering="crispEdges"/><rect fill="#003054" x="793" y="660.3" width="12.2" height="24.65" shape-rendering="crispEdges"/><rect fill="#003054" x="805.2" y="660.3" width="12.2" height="24.65" shape-rendering="crispEdges"/><rect fill="#003054" x="817.4" y="660.3" width="12.2" height="24.65" shape-rendering="crispEdges"/><rect fill="#003054" x="829.6" y="660.3" width="12.2" height="24.65" shape-rendering="crispEdges"/><rect fill="#003054" x="841.8" y="660.3" width="12.2" height="24.65" shape-rendering="crispEdges"/><rect fill="#003054" x="854" y="660.3" width="12.2" height="24.65" shape-rendering="crispEdges"/><rect fill="#003054" x="866.2" y="660.3" width="12.2" height="24.65" shape-rendering="crispEdges"/><rect fill="#003054" x="878.4" y="660.3" width="12.2" height="24.65" shape-rendering="crispEdges"/><rect fill="#003054" x="890.6" y="660.3" width="12.2" height="24.65" shape-rendering="crispEdges"/><rect fill="#003054" x="902.8" y="660.3" width="12.2" height="24.65" shape-rendering="crispEdges"/><rect fill="#003054" x="915" y="660.3" width="12.2" height="24.65" shape-rendering="crispEdges"/><rect fill="#003054" x="927.2" y="660.3" width="12.2" height="24.65" shape-rendering="crispEdges"/><rect fill="#003054" x="939.4" y="660.3" width="12.2" height="24.65" shape-rendering="crispEdges"/><rect fill="#000000" x="951.6" y="660.3" width="12.2" height="24.65" shape-rendering="crispEdges"/><rect fill="#000000" x="963.8" y="660.3" width="12.2" height="24.65" shape-rendering="crispEdges"/><rect fill="#000000" x="976" y="660.3" width="12.2" height="24.65" shape-rendering="crispEdges"/><rect fill="#000000" x="988.2" y="660.3" width="12.2" height="24.65" shape-rendering="crispEdges"/><rect fill="#000000" x="1000.4" y="660.3" width="12.2" height="24.65" shape-rendering="crispEdges"/><rect fill="#000000" x="1012.6" y="660.3" width="12.2" height="24.65" shape-rendering="crispEdges"/><rect fill="#000000" x="1024.8" y="660.3" width="12.2" height="24.65" shape-rendering="crispEdges"/><rect fill="#000000" x="1037" y="660.3" width="12.2" height="24.65" shape-rendering="crispEdges"/><rect fill="#000000" x="1049.2" y="660.3" width="12.2" height="24.65" shape-rendering="crispEdges"/><rect fill="#000000" x="1061.4" y="660.3" width="12.2" height="24.65" shape-rendering="crispEdges"/><rect fill="#272727" x="1073.6" y="660.3" width="12.2" height="24.65" shape-rendering="crispEdges"/><rect fill="#121212" x="1085.8" y="660.3" width="12.2" height="24.65" shape-rendering="crispEdges"/><rect fill="#121212" x="0" y="684.7" width="12.2" height="24.65" shape-rendering="crispEdges"/><rect fill="#272727" x="12.2" y="684.7" width="12.2" height="24.65" shape-rendering="crispEdges"/><rect fill="#272727" x="24.4" y="684.7" width="1049.2" height="24.65" shape-rendering="crispEdges"/><rect fill="#272727" x="1073.6" y="684.7" width="12.2" height="24.65" shape-rendering="crispEdges"/><rect fill="#121212" x="1085.8" y="684.7" width="12.2" height="24.65" shape-rendering="crispEdges"/><rect fill="#242f38" x="0" y="709.1" width="36.6" height="24.65" shape-rendering="crispEdges"/><rect fill="#242f38" x="36.6" y="709.1" width="195.2" height="24.65" shape-rendering="crispEdges"/><rect fill="#242f38" x="231.8" y="709.1" width="36.6" height="24.65" shape-rendering="crispEdges"/><rect fill="#242f38" x="268.4" y="709.1" width="61" height="24.65" shape-rendering="crispEdges"/><rect fill="#242f38" x="329.4" y="709.1" width="48.8" height="24.65" shape-rendering="crispEdges"/><rect fill="#242f38" x="378.2" y="709.1" width="122" height="24.65" shape-rendering="crispEdges"/><rect fill="#242f38" x="500.2" y="709.1" width="48.8" height="24.65" shape-rendering="crispEdges"/><rect fill="#242f38" x="549" y="709.1" width="85.4" height="24.65" shape-rendering="crispEdges"/><rect fill="#242f38" x="634.4" y="709.1" width="48.8" height="24.65" shape-rendering="crispEdges"/><rect fill="#242f38" x="683.2" y="709.1" width="109.8" height="24.65" shape-rendering="crispEdges"/><rect fill="#242f38" x="793" y="709.1" width="48.8" height="24.65" shape-rendering="crispEdges"/><rect fill="#242f38" x="841.8" y="709.1" width="122" height="24.65" shape-rendering="crispEdges"/><rect fill="#242f38" x="963.8" y="709.1" width="48.8" height="24.65" shape-rendering="crispEdges"/><rect fill="#242f38" x="1012.6" y="709.1" width="48.8" height="24.65" shape-rendering="crispEdges"/><rect fill="#242f38" x="1061.4" y="709.1" width="36.6" height="24.65" shape-rendering="crispEdges"/>
    <g class="terminal-1785933881-matrix">
    <text class="terminal-1785933881-r2" x="12.2" y="20" textLength="268.4" clip-path="url(#terminal-1785933881-line-0)">CMD&#160;ALL-IN-ONE&#160;&#160;·&#160;&#160;Log</text><text class="terminal-1785933881-r3" x="707.6" y="20" textLength="378.2" clip-path="url(#terminal-1785933881-line-0)">Guilherme&#160;·&#160;16/09/2026&#160;08:16:52</text><text class="terminal-1785933881-r1" x="1098" y="20" textLength="12.2" clip-path="url(#terminal-1785933881-line-0)">
</text><text class="terminal-1785933881-r4" x="12.2" y="44.4" textLength="707.6" clip-path="url(#terminal-1785933881-line-1)">app.log&#160;·&#160;últimas&#160;300&#160;linhas&#160;·&#160;filtro:&#160;TODOS&#160;·&#160;11&#160;linhas&#160;&#160;</text><text class="terminal-1785933881-r4" x="719.8" y="44.4" textLength="170.8" clip-path="url(#terminal-1785933881-line-1)">&#160;muda&#160;o&#160;filtro</text><text class="terminal-1785933881-r1" x="1098" y="44.4" textLength="12.2" clip-path="url(#terminal-1785933881-line-1)">
</text><text class="terminal-1785933881-r5" x="12.2" y="68.8" textLength="12.2" clip-path="url(#terminal-1785933881-line-2)">╭</text><text class="terminal-1785933881-r5" x="24.4" y="68.8" textLength="1049.2" clip-path="url(#terminal-1785933881-line-2)">──────────────────────────────────────────────────────────────────────────────────────</text><text class="terminal-1785933881-r5" x="1073.6" y="68.8" textLength="12.2" clip-path="url(#terminal-1785933881-line-2)">╮</text><text class="terminal-1785933881-r1" x="1098" y="68.8" textLength="12.2" clip-path="url(#terminal-1785933881-line-2)">
</text><text class="terminal-1785933881-r5" x="12.2" y="93.2" textLength="12.2" clip-path="url(#terminal-1785933881-line-3)">│</text><text class="terminal-1785933881-r6" x="24.4" y="93.2" textLength="841.8" clip-path="url(#terminal-1785933881-line-3)">2026-09-16&#160;07:46:41&#160;INFO&#160;app:&#160;CMD&#160;ALL-IN-ONE&#160;iniciado&#160;(textual&#160;8.2.8)</text><text class="terminal-1785933881-r5" x="1073.6" y="93.2" textLength="12.2" clip-path="url(#terminal-1785933881-line-3)">│</text><text class="terminal-1785933881-r1" x="1098" y="93.2" textLength="12.2" clip-path="url(#terminal-1785933881-line-3)">
</text><text class="terminal-1785933881-r5" x="12.2" y="117.6" textLength="12.2" clip-path="url(#terminal-1785933881-line-4)">│</text><text class="terminal-1785933881-r6" x="24.4" y="117.6" textLength="1037" clip-path="url(#terminal-1785933881-line-4)">2026-09-16&#160;07:46:41&#160;INFO&#160;source.email:&#160;conectado&#160;a&#160;imap.example.com:143&#160;(STARTTLS,&#160;re</text><text class="terminal-1785933881-r5" x="1073.6" y="117.6" textLength="12.2" clip-path="url(#terminal-1785933881-line-4)">│</text><text class="terminal-1785933881-r1" x="1098" y="117.6" textLength="12.2" clip-path="url(#terminal-1785933881-line-4)">
</text><text class="terminal-1785933881-r5" x="12.2" y="142" textLength="12.2" clip-path="url(#terminal-1785933881-line-5)">│</text><text class="terminal-1785933881-r6" x="24.4" y="142" textLength="1037" clip-path="url(#terminal-1785933881-line-5)">2026-09-16&#160;07:47:41&#160;INFO&#160;source.milldesk:&#160;ticketsByStatus:&#160;37&#160;abertos,&#160;12&#160;no&#160;meu&#160;nome</text><text class="terminal-1785933881-r5" x="1073.6" y="142" textLength="12.2" clip-path="url(#terminal-1785933881-line-5)">│</text><text class="terminal-1785933881-r1" x="1098" y="142" textLength="12.2" clip-path="url(#terminal-1785933881-line-5)">
</text><text class="terminal-1785933881-r5" x="12.2" y="166.4" textLength="12.2" clip-path="url(#terminal-1785933881-line-6)">│</text><text class="terminal-1785933881-r6" x="24.4" y="166.4" textLength="1037" clip-path="url(#terminal-1785933881-line-6)">2026-09-16&#160;07:47:41&#160;INFO&#160;source.chatpanel:&#160;sessão&#160;restaurada&#160;de&#160;session.bin&#160;(User&#160;CMD</text><text class="terminal-1785933881-r5" x="1073.6" y="166.4" textLength="12.2" clip-path="url(#terminal-1785933881-line-6)">│</text><text class="terminal-1785933881-r1" x="1098" y="166.4" textLength="12.2" clip-path="url(#terminal-1785933881-line-6)">
</text><text class="terminal-1785933881-r5" x="12.2" y="190.8" textLength="12.2" clip-path="url(#terminal-1785933881-line-7)">│</text><text class="terminal-1785933881-r6" x="24.4" y="190.8" textLength="719.8" clip-path="url(#terminal-1785933881-line-7)">2026-09-16&#160;08:04:41&#160;INFO&#160;tui:&#160;aumentou&#160;em&#160;Milldesk:&#160;abertos</text><text class="terminal-1785933881-r5" x="1073.6" y="190.8" textLength="12.2" clip-path="url(#terminal-1785933881-line-7)">│</text><text class="terminal-1785933881-r1" x="1098" y="190.8" textLength="12.2" clip-path="url(#terminal-1785933881-line-7)">
</text><text class="terminal-1785933881-r5" x="12.2" y="215.2" textLength="12.2" clip-path="url(#terminal-1785933881-line-8)">│</text><text class="terminal-1785933881-r6" x="24.4" y="215.2" textLength="1037" clip-path="url(#terminal-1785933881-line-8)">2026-09-16&#160;08:04:41&#160;INFO&#160;tui:&#160;evento:&#160;chamado&#160;#4831&#160;entrou:&#160;Impressora&#160;fiscal&#160;não&#160;imp</text><text class="terminal-1785933881-r5" x="1073.6" y="215.2" textLength="12.2" clip-path="url(#terminal-1785933881-line-8)">│</text><text class="terminal-1785933881-r1" x="1098" y="215.2" textLength="12.2" clip-path="url(#terminal-1785933881-line-8)">
</text><text class="terminal-1785933881-r5" x="12.2" y="239.6" textLength="12.2" clip-path="url(#terminal-1785933881-line-9)">│</text><text class="terminal-1785933881-r6" x="24.4" y="239.6" textLength="878.4" clip-path="url(#terminal-1785933881-line-9)">2026-09-16&#160;08:08:41&#160;WARNING&#160;source.milldesk:&#160;tentativa&#160;1&#160;falhou:&#160;timeout</text><text class="terminal-1785933881-r5" x="1073.6" y="239.6" textLength="12.2" clip-path="url(#terminal-1785933881-line-9)">│</text><text class="terminal-1785933881-r1" x="1098" y="239.6" textLength="12.2" clip-path="url(#terminal-1785933881-line-9)">
</text><text class="terminal-1785933881-r5" x="12.2" y="264" textLength="12.2" clip-path="url(#terminal-1785933881-line-10)">│</text><text class="terminal-1785933881-r6" x="24.4" y="264" textLength="780.8" clip-path="url(#terminal-1785933881-line-10)">2026-09-16&#160;08:08:41&#160;INFO&#160;source.milldesk:&#160;tentativa&#160;2&#160;ok&#160;(2,1&#160;s)</text><text class="terminal-1785933881-r5" x="1073.6" y="264" textLength="12.2" clip-path="url(#terminal-1785933881-line-10)">│</text><text class="terminal-1785933881-r1" x="1098" y="264" textLength="12.2" clip-path="url(#terminal-1785933881-line-10)">
</text><text class="terminal-1785933881-r5" x="12.2" y="288.4" textLength="12.2" clip-path="url(#terminal-1785933881-line-11)">│</text><text class="terminal-1785933881-r6" x="24.4" y="288.4" textLength="939.4" clip-path="url(#terminal-1785933881-line-11)">2026-09-16&#160;08:11:41&#160;INFO&#160;tui:&#160;evento:&#160;Diego&#160;Leone&#160;·&#160;PM&#160;Iaras:&#160;1&#160;nova&#160;mensagem</text><text class="terminal-1785933881-r5" x="1073.6" y="288.4" textLength="12.2" clip-path="url(#terminal-1785933881-line-11)">│</text><text class="terminal-1785933881-r1" x="1098" y="288.4" textLength="12.2" clip-path="url(#terminal-1785933881-line-11)">
</text><text class="terminal-1785933881-r5" x="12.2" y="312.8" textLength="12.2" clip-path="url(#terminal-1785933881-line-12)">│</text><text class="terminal-1785933881-r6" x="24.4" y="312.8" textLength="719.8" clip-path="url(#terminal-1785933881-line-12)">2026-09-16&#160;08:13:41&#160;INFO&#160;tui:&#160;aumentou&#160;em&#160;e-mail:&#160;não&#160;lidos</text><text class="terminal-1785933881-r5" x="1073.6" y="312.8" textLength="12.2" clip-path="url(#terminal-1785933881-line-12)">│</text><text class="terminal-1785933881-r1" x="1098" y="312.8" textLength="12.2" clip-path="url(#terminal-1785933881-line-12)">
</text><text class="terminal-1785933881-r5" x="12.2" y="337.2" textLength="12.2" clip-path="url(#terminal-1785933881-line-13)">│</text><text class="terminal-1785933881-r6" x="24.4" y="337.2" textLength="878.4" clip-path="url(#terminal-1785933881-line-13)">2026-09-16&#160;08:16:41&#160;INFO&#160;source.email:&#160;142&#160;na&#160;caixa,&#160;7&#160;não&#160;lidos,&#160;3&#160;spam</text><text class="terminal-1785933881-r5" x="1073.6" y="337.2" textLength="12.2" clip-path="url(#terminal-1785933881-line-13)">│</text><text class="terminal-1785933881-r1" x="1098" y="337.2" textLength="12.2" clip-path="url(#terminal-1785933881-line-13)">
</text><text class="terminal-1785933881-r5" x="12.2" y="361.6" textLength="12.2" clip-path="url(#terminal-1785933881-line-14)">│</text><text class="terminal-1785933881-r5" x="1073.6" y="361.6" textLength="12.2" clip-path="url(#terminal-1785933881-line-14)">│</text><text class="terminal-1785933881-r1" x="1098" y="361.6" textLength="12.2" clip-path="url(#terminal-1785933881-line-14)">
</text><text class="terminal-1785933881-r5" x="12.2" y="386" textLength="12.2" clip-path="url(#terminal-1785933881-line-15)">│</text><text class="terminal-1785933881-r5" x="1073.6" y="386" textLength="12.2" clip-path="url(#terminal-1785933881-line-15)">│</text><text class="terminal-1785933881-r1" x="1098" y="386" textLength="12.2" clip-path="url(#terminal-1785933881-line-15)">
</text><text class="terminal-1785933881-r5" x="12.2" y="410.4" textLength="12.2" clip-path="url(#terminal-1785933881-line-16)">│</text><text class="terminal-1785933881-r5" x="1073.6" y="410.4" textLength="12.2" clip-path="url(#terminal-1785933881-line-16)">│</text><text class="terminal-1785933881-r1" x="1098" y="410.4" textLength="12.2" clip-path="url(#terminal-1785933881-line-16)">
</text><text class="terminal-1785933881-r5" x="12.2" y="434.8" textLength="12.2" clip-path="url(#terminal-1785933881-line-17)">│</text><text class="terminal-1785933881-r5" x="1073.6" y="434.8" textLength="12.2" clip-path="url(#terminal-1785933881-line-17)">│</text><text class="terminal-1785933881-r1" x="1098" y="434.8" textLength="12.2" clip-path="url(#terminal-1785933881-line-17)">
</text><text class="terminal-1785933881-r5" x="12.2" y="459.2" textLength="12.2" clip-path="url(#terminal-1785933881-line-18)">│</text><text class="terminal-1785933881-r5" x="1073.6" y="459.2" textLength="12.2" clip-path="url(#terminal-1785933881-line-18)">│</text><text class="terminal-1785933881-r1" x="1098" y="459.2" textLength="12.2" clip-path="url(#terminal-1785933881-line-18)">
</text><text class="terminal-1785933881-r5" x="12.2" y="483.6" textLength="12.2" clip-path="url(#terminal-1785933881-line-19)">│</text><text class="terminal-1785933881-r5" x="1073.6" y="483.6" textLength="12.2" clip-path="url(#terminal-1785933881-line-19)">│</text><text class="terminal-1785933881-r1" x="1098" y="483.6" textLength="12.2" clip-path="url(#terminal-1785933881-line-19)">
</text><text class="terminal-1785933881-r5" x="12.2" y="508" textLength="12.2" clip-path="url(#terminal-1785933881-line-20)">│</text><text class="terminal-1785933881-r5" x="1073.6" y="508" textLength="12.2" clip-path="url(#terminal-1785933881-line-20)">│</text><text class="terminal-1785933881-r1" x="1098" y="508" textLength="12.2" clip-path="url(#terminal-1785933881-line-20)">
</text><text class="terminal-1785933881-r5" x="12.2" y="532.4" textLength="12.2" clip-path="url(#terminal-1785933881-line-21)">│</text><text class="terminal-1785933881-r5" x="1073.6" y="532.4" textLength="12.2" clip-path="url(#terminal-1785933881-line-21)">│</text><text class="terminal-1785933881-r1" x="1098" y="532.4" textLength="12.2" clip-path="url(#terminal-1785933881-line-21)">
</text><text class="terminal-1785933881-r5" x="12.2" y="556.8" textLength="12.2" clip-path="url(#terminal-1785933881-line-22)">│</text><text class="terminal-1785933881-r5" x="1073.6" y="556.8" textLength="12.2" clip-path="url(#terminal-1785933881-line-22)">│</text><text class="terminal-1785933881-r1" x="1098" y="556.8" textLength="12.2" clip-path="url(#terminal-1785933881-line-22)">
</text><text class="terminal-1785933881-r5" x="12.2" y="581.2" textLength="12.2" clip-path="url(#terminal-1785933881-line-23)">│</text><text class="terminal-1785933881-r5" x="1073.6" y="581.2" textLength="12.2" clip-path="url(#terminal-1785933881-line-23)">│</text><text class="terminal-1785933881-r1" x="1098" y="581.2" textLength="12.2" clip-path="url(#terminal-1785933881-line-23)">
</text><text class="terminal-1785933881-r5" x="12.2" y="605.6" textLength="12.2" clip-path="url(#terminal-1785933881-line-24)">│</text><text class="terminal-1785933881-r5" x="1073.6" y="605.6" textLength="12.2" clip-path="url(#terminal-1785933881-line-24)">│</text><text class="terminal-1785933881-r1" x="1098" y="605.6" textLength="12.2" clip-path="url(#terminal-1785933881-line-24)">
</text><text class="terminal-1785933881-r5" x="12.2" y="630" textLength="12.2" clip-path="url(#terminal-1785933881-line-25)">│</text><text class="terminal-1785933881-r5" x="1073.6" y="630" textLength="12.2" clip-path="url(#terminal-1785933881-line-25)">│</text><text class="terminal-1785933881-r1" x="1098" y="630" textLength="12.2" clip-path="url(#terminal-1785933881-line-25)">
</text><text class="terminal-1785933881-r5" x="12.2" y="654.4" textLength="12.2" clip-path="url(#terminal-1785933881-line-26)">│</text><text class="terminal-1785933881-r5" x="1073.6" y="654.4" textLength="12.2" clip-path="url(#terminal-1785933881-line-26)">│</text><text class="terminal-1785933881-r1" x="1098" y="654.4" textLength="12.2" clip-path="url(#terminal-1785933881-line-26)">
</text><text class="terminal-1785933881-r5" x="12.2" y="678.8" textLength="12.2" clip-path="url(#terminal-1785933881-line-27)">│</text><text class="terminal-1785933881-r8" x="951.6" y="678.8" textLength="12.2" clip-path="url(#terminal-1785933881-line-27)">▏</text><text class="terminal-1785933881-r5" x="1073.6" y="678.8" textLength="12.2" clip-path="url(#terminal-1785933881-line-27)">│</text><text class="terminal-1785933881-r1" x="1098" y="678.8" textLength="12.2" clip-path="url(#terminal-1785933881-line-27)">
</text><text class="terminal-1785933881-r5" x="12.2" y="703.2" textLength="12.2" clip-path="url(#terminal-1785933881-line-28)">╰</text><text class="terminal-1785933881-r5" x="24.4" y="703.2" textLength="1049.2" clip-path="url(#terminal-1785933881-line-28)">──────────────────────────────────────────────────────────────────────────────────────</text><text class="terminal-1785933881-r5" x="1073.6" y="703.2" textLength="12.2" clip-path="url(#terminal-1785933881-line-28)">╯</text><text class="terminal-1785933881-r1" x="1098" y="703.2" textLength="12.2" clip-path="url(#terminal-1785933881-line-28)">
</text><text class="terminal-1785933881-r9" x="0" y="727.6" textLength="36.6" clip-path="url(#terminal-1785933881-line-29)">&#160;f&#160;</text><text class="terminal-1785933881-r6" x="36.6" y="727.6" textLength="195.2" clip-path="url(#terminal-1785933881-line-29)">Filtro&#160;de&#160;nível&#160;</text><text class="terminal-1785933881-r9" x="231.8" y="727.6" textLength="36.6" clip-path="url(#terminal-1785933881-line-29)">&#160;q&#160;</text><text class="terminal-1785933881-r6" x="268.4" y="727.6" textLength="61" clip-path="url(#terminal-1785933881-line-29)">Sair&#160;</text><text class="terminal-1785933881-r9" x="329.4" y="727.6" textLength="48.8" clip-path="url(#terminal-1785933881-line-29)">&#160;f1&#160;</text><text class="terminal-1785933881-r6" x="378.2" y="727.6" textLength="122" clip-path="url(#terminal-1785933881-line-29)">Dashboard&#160;</text><text class="terminal-1785933881-r9" x="500.2" y="727.6" textLength="48.8" clip-path="url(#terminal-1785933881-line-29)">&#160;f2&#160;</text><text class="terminal-1785933881-r6" x="549" y="727.6" textLength="85.4" clip-path="url(#terminal-1785933881-line-29)">E-mail&#160;</text><text class="terminal-1785933881-r9" x="634.4" y="727.6" textLength="48.8" clip-path="url(#terminal-1785933881-line-29)">&#160;f3&#160;</text><text class="terminal-1785933881-r6" x="683.2" y="727.6" textLength="109.8" clip-path="url(#terminal-1785933881-line-29)">Milldesk&#160;</text><text class="terminal-1785933881-r9" x="793" y="727.6" textLength="48.8" clip-path="url(#terminal-1785933881-line-29)">&#160;f4&#160;</text><text class="terminal-1785933881-r6" x="841.8" y="727.6" textLength="122" clip-path="url(#terminal-1785933881-line-29)">ChatPanel&#160;</text><text class="terminal-1785933881-r9" x="963.8" y="727.6" textLength="48.8" clip-path="url(#terminal-1785933881-line-29)">&#160;f5&#160;</text><text class="terminal-1785933881-r6" x="1012.6" y="727.6" textLength="48.8" clip-path="url(#terminal-1785933881-line-29)">Log&#160;</text><text class="terminal-1785933881-r9" x="1061.4" y="727.6" textLength="36.6" clip-path="url(#terminal-1785933881-line-29)">&#160;f6</text>
    </g>
    </g>
</svg>
